<svg width="184.000000" height="48.000000" viewBox="0 0 184 48" fill="none" xmlns="http://www.w3.org/2000/svg" xmlns:xlink="http://www.w3.org/1999/xlink">
	<desc>
			Created with Pixso.
	</desc>
	<defs/>
	<path id="finosure" d="M114.02 29.2Q115.04 27.24 115.04 24.66Q115.04 21.3 113.42 19.17Q113.15 18.81 112.83 18.49Q112.48 18.13 112.08 17.83Q110 16.24 106.69 16.24Q103.34 16.24 101.25 17.86Q100.89 18.14 100.56 18.46Q100.29 18.74 100.06 19.03Q98.36 21.18 98.36 24.66Q98.36 28.13 100.04 30.32Q100.28 30.64 100.57 30.94Q100.99 31.37 101.47 31.73Q103.52 33.23 106.67 33.23Q109.2 33.23 111.1 32.19Q111.94 31.73 112.6 31.1Q113.45 30.29 114.02 29.2ZM130.68 30.77Q131.35 29.72 131.35 28.24Q131.35 27.21 131.04 26.41Q130.82 25.88 130.48 25.45Q130.32 25.24 130.12 25.06Q129.53 24.49 128.5 24.06Q127.48 23.63 125.1 23.13Q123.09 22.69 122.44 22.41Q121.78 22.12 121.45 21.71Q121.41 21.67 121.39 21.63Q121.11 21.24 121.11 20.66Q121.11 20.1 121.36 19.7Q122 18.69 124.25 18.69Q125.73 18.69 126.52 19.23Q126.71 19.36 126.87 19.52Q127.37 20.03 127.57 20.83L130.92 20.37Q130.55 18.55 129.44 17.57Q129.2 17.37 128.93 17.2Q127.39 16.24 124.32 16.24Q121.11 16.24 119.43 17.43Q118.75 17.91 118.35 18.55Q117.75 19.52 117.75 20.85Q117.75 21.73 117.98 22.41Q118.21 23.09 118.62 23.6Q118.63 23.61 118.64 23.63Q119.05 24.11 119.61 24.46Q120.2 24.82 120.92 25.08Q121.65 25.34 123.5 25.78Q125.65 26.21 126.4 26.51Q127.16 26.82 127.57 27.28Q127.68 27.39 127.76 27.53Q127.99 27.92 127.99 28.44Q127.99 29.03 127.73 29.47Q127.01 30.64 124.37 30.64Q122.62 30.64 121.64 30.05Q121.42 29.92 121.23 29.75Q120.58 29.16 120.31 28.14L116.98 28.69Q117.32 30.2 118.22 31.21Q118.68 31.72 119.3 32.1Q121.1 33.23 124.28 33.23Q127.76 33.23 129.56 31.95Q130.26 31.45 130.68 30.77ZM63.06 24.26L63.06 19.16L71.78 19.16L71.78 16.48L59.6 16.48L59.6 33L63.06 33L63.06 26.94L71.51 26.94L71.51 24.26L63.06 24.26ZM74.5 16.48L74.5 33L77.96 33L77.96 16.48L74.5 16.48ZM84.27 20.28L91.46 33L95.52 33L95.52 16.48L92.45 16.48L92.45 26.08Q92.45 27.53 92.66 29.3L85.36 16.48L81.41 16.48L81.41 33L84.48 33L84.48 23.26Q84.48 22.13 84.27 20.28ZM135.78 31.57Q137.59 33.23 141 33.23Q144.52 33.23 146.46 31.5Q146.9 31.1 147.25 30.63Q148.4 29.05 148.4 26.63L148.4 16.48L144.94 16.48L144.94 26.42Q144.94 28.38 143.96 29.44Q143.95 29.45 143.95 29.46Q143.8 29.62 143.63 29.75Q142.68 30.52 141.1 30.52Q139.51 30.52 138.6 29.74Q138.47 29.63 138.36 29.51Q137.43 28.5 137.43 26.54L137.43 16.48L133.97 16.48L133.97 26.81Q133.97 29.38 135.22 30.96Q135.48 31.28 135.78 31.57ZM159.22 26.73L163.05 33L166.94 33L162.48 26.06Q163.6 25.79 164.41 25.14Q164.81 24.82 165.14 24.4Q165.44 24.01 165.66 23.57Q166.12 22.6 166.12 21.41Q166.12 19.76 165.35 18.64Q165.01 18.15 164.52 17.75Q162.91 16.48 159.96 16.48L151.71 16.48L151.71 33L155.17 33L155.17 26.73L159.22 26.73ZM169.28 16.48L169.28 33L182.75 33L182.75 30.32L172.74 30.32L172.74 25.98L181.55 25.98L181.55 23.3L172.74 23.3L172.74 19.16L182.27 19.16L182.27 16.48L169.28 16.48ZM110.24 20.47Q111.51 21.99 111.51 24.66Q111.51 27.46 110.25 28.99Q109.89 29.42 109.44 29.73Q108.33 30.51 106.67 30.51Q105.25 30.51 104.21 29.88Q103.61 29.52 103.14 28.95Q101.84 27.38 101.84 24.66Q101.84 21.97 103.11 20.46Q103.46 20.05 103.88 19.75Q105.01 18.96 106.69 18.96Q108.28 18.96 109.38 19.69Q109.86 20.01 110.24 20.47ZM162.21 20.09Q162.64 20.64 162.64 21.55Q162.64 22.42 162.23 23.01Q162.09 23.22 161.89 23.39Q161.14 24.04 159.69 24.04L155.17 24.04L155.17 19.17L159.6 19.17Q161.49 19.17 162.21 20.09Z" fill="#FFFFFF" fill-opacity="1.000000" fill-rule="evenodd"/>
	<path id="Vector" d="M48 0L0 0L0 48L48 48L48 0Z" fill="#1B1B1B" fill-opacity="1.000000" fill-rule="evenodd"/>
	<path id="Vector" d="M37.31 32.23C37.09 31.88 36.8 31.58 36.47 31.35C36.13 31.11 35.75 30.95 35.35 30.86C33.82 30.5 32.49 29.55 31.66 28.22C30.82 26.89 30.55 25.28 30.9 23.75C31.03 23.15 30.99 22.54 30.77 21.97C30.55 21.4 30.17 20.91 29.68 20.56C29.18 20.2 28.6 20.01 27.99 19.99C27.38 19.97 26.78 20.13 26.27 20.45C25.75 20.77 25.34 21.23 25.09 21.79C24.83 22.34 24.75 22.96 24.85 23.56C24.94 24.16 25.21 24.71 25.63 25.16C26.04 25.61 26.57 25.92 27.16 26.06C27.93 26.24 28.65 26.56 29.29 27.01C29.93 27.46 30.47 28.04 30.89 28.7C31.31 29.36 31.59 30.1 31.72 30.87C31.85 31.64 31.83 32.43 31.65 33.2C31.55 33.69 31.57 34.2 31.71 34.68C31.85 35.16 32.1 35.61 32.45 35.97C32.8 36.33 33.23 36.6 33.71 36.76C34.19 36.92 34.69 36.95 35.19 36.87C35.69 36.79 36.15 36.58 36.55 36.27C36.95 35.97 37.27 35.57 37.48 35.11C37.68 34.65 37.78 34.15 37.75 33.65C37.72 33.15 37.57 32.66 37.31 32.23Z" fill="#FFFFFF" fill-opacity="1.000000" fill-rule="evenodd"/>
	<path id="Vector" d="M18.35 28.81C18.89 29.1 19.5 29.23 20.12 29.17C20.73 29.11 21.31 28.87 21.78 28.49C22.26 28.1 22.61 27.57 22.78 26.98C22.96 26.39 22.95 25.77 22.77 25.18C22.54 24.43 22.45 23.65 22.53 22.87C22.6 22.09 22.82 21.33 23.19 20.64C23.55 19.94 24.05 19.33 24.65 18.83C25.26 18.33 25.95 17.96 26.7 17.72C27.28 17.54 27.79 17.19 28.18 16.72C28.56 16.25 28.79 15.67 28.85 15.07C28.9 14.46 28.78 13.85 28.49 13.32C28.2 12.78 27.76 12.34 27.22 12.06C26.69 11.77 26.08 11.65 25.47 11.72C24.87 11.78 24.29 12.01 23.82 12.4C23.35 12.79 23.01 13.3 22.83 13.88C22.65 14.47 22.65 15.09 22.83 15.67C23.28 17.17 23.13 18.8 22.39 20.19C21.66 21.58 20.4 22.62 18.9 23.08C18.31 23.26 17.78 23.6 17.39 24.08C16.99 24.55 16.75 25.13 16.69 25.75C16.63 26.36 16.76 26.98 17.05 27.52C17.35 28.07 17.8 28.51 18.35 28.79L18.35 28.81Z" fill="#FFFFFF" fill-opacity="1.000000" fill-rule="evenodd"/>
	<path id="Vector" d="M26.28 28.3C25.87 28.32 25.47 28.42 25.1 28.59C24.73 28.76 24.39 29 24.12 29.31C23.04 30.45 21.56 31.13 19.99 31.19C18.42 31.24 16.89 30.68 15.73 29.61C15.44 29.33 15.09 29.11 14.7 28.97C14.32 28.83 13.91 28.76 13.5 28.78C13 28.8 12.51 28.95 12.08 29.2C11.65 29.46 11.28 29.82 11.02 30.25C10.76 30.68 10.6 31.16 10.57 31.67C10.54 32.17 10.63 32.67 10.84 33.13C11.05 33.59 11.37 33.99 11.76 34.3C12.16 34.6 12.63 34.81 13.12 34.9C13.62 34.98 14.13 34.94 14.61 34.79C15.09 34.63 15.52 34.36 15.87 34C16.4 33.42 17.04 32.96 17.75 32.63C18.46 32.3 19.23 32.12 20.01 32.09C20.8 32.06 21.58 32.18 22.31 32.45C23.05 32.73 23.72 33.14 24.3 33.67C24.67 34.01 25.12 34.25 25.61 34.38C26.1 34.5 26.61 34.5 27.1 34.38C27.59 34.26 28.04 34.02 28.41 33.69C28.79 33.35 29.08 32.93 29.25 32.46C29.43 31.99 29.48 31.48 29.42 30.98C29.35 30.48 29.16 30 28.87 29.59C28.58 29.18 28.19 28.85 27.74 28.63C27.29 28.4 26.79 28.29 26.28 28.3Z" fill="#FFFFFF" fill-opacity="1.000000" fill-rule="evenodd"/>
</svg>
